<?xml version="1.0" standalone="no"?>
<!DOCTYPE svg PUBLIC "-//W3C//DTD SVG 20010904//EN"
 "http://www.w3.org/TR/2001/REC-SVG-20010904/DTD/svg10.dtd">
<svg version="1.0" xmlns="http://www.w3.org/2000/svg"
 width="260.000000pt" height="260.000000pt" viewBox="0 0 260.000000 260.000000"
 preserveAspectRatio="xMidYMid meet">
<metadata>
Created by potrace 1.11, written by Peter Selinger 2001-2013
</metadata>
<g transform="translate(0.000000,260.000000) scale(0.100000,-0.100000)"
fill="#000000" stroke="none">
<path d="M0 1820 l0 -780 1300 0 1300 0 0 780 0 780 -1300 0 -1300 0 0 -780z
m416 211 c-21 -40 -20 -56 6 -92 21 -28 21 -32 7 -57 -41 -73 -140 -14 -123
74 8 43 48 92 89 110 36 15 42 6 21 -35z m200 0 c-21 -40 -20 -56 6 -91 18
-25 20 -34 10 -54 -22 -48 -91 -46 -117 4 -30 58 10 146 80 176 36 15 42 6 21
-35z m335 39 c99 -18 109 -26 109 -80 l0 -48 -55 19 c-65 23 -134 25 -161 5
-30 -23 -7 -47 82 -84 107 -44 154 -92 154 -158 0 -96 -59 -145 -180 -151 -61
-3 -85 1 -130 19 l-55 23 -3 53 c-2 28 -1 52 2 52 2 0 27 -12 55 -26 94 -49
186 -42 179 14 -3 23 -15 31 -88 62 -132 56 -174 112 -150 201 13 45 58 84
116 98 53 12 63 12 125 1z m1103 -12 c15 -13 28 -36 32 -53 8 -44 -32 -115
-78 -140 -45 -24 -58 -14 -35 24 22 38 21 67 -3 91 -26 26 -25 46 5 75 30 31
47 31 79 3z m200 0 c15 -13 28 -36 32 -53 8 -44 -32 -115 -78 -140 -45 -24
-58 -14 -35 24 22 38 21 67 -3 91 -26 26 -25 46 5 75 30 31 47 31 79 3z m-964
-233 l0 -245 -65 0 -65 0 0 245 0 245 65 0 65 0 0 -245z m410 234 c64 -14 127
-61 160 -119 21 -37 25 -58 25 -120 -1 -87 -24 -143 -78 -184 -60 -46 -107
-56 -263 -56 l-144 0 0 245 0 245 125 0 c68 0 147 -5 175 -11z"/>
<path d="M1528 1974 c-5 -4 -8 -74 -8 -156 l0 -148 68 0 c78 0 120 20 152 72
41 68 17 174 -48 211 -34 20 -151 35 -164 21z"/>
<path d="M650 505 l0 -326 118 3 117 3 3 37 3 38 -70 0 -71 0 0 250 0 250 70
0 70 0 0 35 0 35 -120 0 -120 0 0 -325z"/>
<path d="M1091 808 c-5 -13 -48 -120 -95 -238 -47 -118 -86 -218 -86 -223 0
-4 28 -7 61 -5 l61 3 17 45 17 45 111 3 112 3 22 -51 21 -50 59 0 c35 0 59 4
59 11 0 5 -46 116 -102 245 l-103 234 -73 0 c-66 0 -73 -2 -81 -22z m123 -187
c20 -45 36 -87 36 -92 0 -5 -34 -9 -75 -9 -41 0 -75 2 -75 5 0 2 13 37 28 77
16 40 32 82 36 92 9 25 9 24 50 -73z"/>
<path d="M1522 588 l3 -243 58 -3 57 -3 0 246 0 245 -60 0 -60 0 2 -242z"/>
<path d="M1710 795 l0 -35 70 0 70 0 0 -250 0 -250 -71 0 -70 0 3 -37 3 -38
118 -3 117 -3 0 326 0 325 -120 0 -120 0 0 -35z"/>
</g>
</svg>
